<?xml version="1.0" encoding="UTF-8" standalone="no"?>
<!-- Created with Inkscape (http://www.inkscape.org/) -->

<svg
   xmlns:dc="http://purl.org/dc/elements/1.1/"
   xmlns:cc="http://creativecommons.org/ns#"
   xmlns:rdf="http://www.w3.org/1999/02/22-rdf-syntax-ns#"
   xmlns:svg="http://www.w3.org/2000/svg"
   xmlns="http://www.w3.org/2000/svg"
   xmlns:xlink="http://www.w3.org/1999/xlink"
   version="1.0"
   width="360"
   height="330"
   id="svg2">
  <metadata
     id="metadata19">
    <rdf:RDF>
      <cc:Work
         rdf:about="">
        <dc:format>image/svg+xml</dc:format>
        <dc:type
           rdf:resource="http://purl.org/dc/dcmitype/StillImage" />
        <dc:title></dc:title>
      </cc:Work>
    </rdf:RDF>
  </metadata>
  <defs
     id="defs5">
    <linearGradient
       id="linearGradient2889">
      <stop
         id="stop2891"
         style="stop-color:#a0a3e1;stop-opacity:1"
         offset="0" />
      <stop
         id="stop2893"
         style="stop-color:#dedcfa;stop-opacity:1"
         offset="1" />
    </linearGradient>
    <linearGradient
       id="linearGradient2812">
      <stop
         id="stop2814"
         style="stop-color:#000000;stop-opacity:1"
         offset="0" />
      <stop
         id="stop2816"
         style="stop-color:#ffffff;stop-opacity:0"
         offset="1" />
    </linearGradient>
    <mask
       id="mask2799">
      <path
         d="m 168.99397,144.76334 c 0,0 45.49917,11.86935 77.15076,3.95645 31.6516,-7.9129 63.3032,-45.49917 63.3032,-45.49917 0,0 34.61893,88.031 38.57538,118.69349 3.95645,30.66248 1.97822,67.25964 -20.77136,90.00923 -22.74959,22.74958 -71.57949,13.48417 -94.95479,-9.89113 -13.88286,-13.88285 -27.69515,-40.55361 -39.5645,-68.24875 -11.86935,-27.69515 -24.72781,-90.00923 -23.73869,-89.02012 z"
         id="use2796"
         style="fill:#e8e7fe;fill-opacity:1;fill-rule:evenodd;stroke:#000000;stroke-width:3.125;stroke-linecap:butt;stroke-linejoin:round;stroke-miterlimit:4;stroke-opacity:1;stroke-dasharray:none" />
    </mask>
    <mask
       id="mask2858">
      <path
         d="m 100,24 c 0,0 -11.5,42.5 34,52 45.5,9.5 83,-9 83,-9 0,0 -6,96.46447 -21,125.46447 C 181,221.46447 141.5,254 118,254 94.5,254 76,238.5 70,223.5 64,208.5 60.5,128 71,102 78.202941,84.164147 73,78.5 82,49.5 87.643273,31.316121 100.5,23 100,24 z"
         id="use2848"
         style="fill:#e8e7fe;fill-opacity:1;fill-rule:evenodd;stroke:#000000;stroke-width:3.125;stroke-linecap:butt;stroke-linejoin:miter;stroke-miterlimit:4;stroke-opacity:1;stroke-dasharray:none" />
    </mask>
    <linearGradient
       x1="92.604424"
       y1="304.50995"
       x2="263.82959"
       y2="26.290426"
       id="linearGradient2895"
       xlink:href="#linearGradient2889"
       gradientUnits="userSpaceOnUse" />
    <clipPath
       id="id3">
      <path
         d="M 0,792 612,792 612,0 0,0 0,792 z"
         id="path2428" />
    </clipPath>
    <linearGradient
       x1="92.604424"
       y1="304.50995"
       x2="263.82959"
       y2="26.290426"
       id="linearGradient3130"
       xlink:href="#linearGradient2889"
       gradientUnits="userSpaceOnUse" />
  </defs>
  <g
     transform="matrix(0.98413972,0,0,0.99496553,-16.622092,-14.340185)"
     id="g3122">
    <path
       d="m 374,169 a 190,152 0 1 1 -380,0 190,152 0 1 1 380,0 z"
       transform="matrix(0.851641,-0.524127,0.524127,0.851641,-45.27941,132.512)"
       id="path2869"
       style="fill:url(#linearGradient3130);fill-opacity:1;stroke:none" />
    <g
       transform="matrix(0.16753713,0,0,0.16753713,140.82917,121.39234)"
       id="g2993">
      <g
         transform="matrix(4.2582706,0,0,-4.2582706,-977.60093,2103.7703)"
         clip-path="url(#id3)"
         id="g2505">
        <path
           d="m 508.58,305.914 -410.979,0 0,185.991 410.979,0 0,-185.991 z"
           id="path2507"
           style="fill:#f11e22;fill-rule:nonzero;stroke:none" />
        <path
           d="m 452.5,465.5 23,0 0,-109 19.5,0 0,-27.5 -42.5,0 0,136.5 z"
           id="path2509"
           style="fill:#ffffff;fill-rule:nonzero;stroke:none" />
        <path
           d="m 294,400.5 c 16.5,1 15,21.5 15,21.5 -2.5,20 -15,19 -15,19 l 0,-40.5 z m -53,-31.5 -7,41.5 -6,-41.5 13,0 z m -126.5,-39.5 0,136 31,0 11,-57 12.5,57 30,0 0,-122.5 19.5,122.5 30.5,0 19,-122.5 0,122 40.5,0 c 0,0 14,-2.5 21,-22 l -3,22.5 24.5,0 11.5,-70.5 12,70 69,0 0,-25.5 -20.5,0 0,-28 19.5,0 0,-28.5 -19,0 0,-26 20,0 0,-27.5 -44.5,0 0,131 -23,-131 -27.5,0 -14.5,87 c 0,0 -2.5,-24 -16,-35 l 17.5,-52 -24,0 -17,45.5 0,-45.5 -48.5,0 -2.5,13 -18.5,0 -4,-13 -46,0 0,50 -12,-50 -12.5,0 -11,49.5 0,-49 -25,-0.5 z"
           id="path2515"
           style="fill:#ffffff;fill-rule:nonzero;stroke:none" />
      </g>
    </g>
  </g>
</svg>
